<svg width="33" height="33" viewBox="0 0 33 33" fill="none" xmlns="http://www.w3.org/2000/svg">
<circle cx="16.5" cy="16.5" r="16.5" fill="#ABFE2C"/>
<path d="M19.3525 13.287C19.3269 15.3918 16.0215 15.1065 14.969 15.0936L15.0146 11.369C16.0671 11.3818 19.3789 11.0892 19.3525 13.287ZM20.1477 19.0899C20.1209 21.4049 16.1603 21.0924 14.8943 21.0775L14.9584 16.9748C16.2202 16.992 20.1907 16.6757 20.1606 19.0933L20.1477 19.0899ZM22.8522 12.4995C22.6687 10.2868 20.7708 9.52641 18.3655 9.28215L18.4032 6.21786L16.5358 6.19368L16.4986 9.17875C16.0104 9.17214 15.509 9.17582 15.0109 9.18036L15.0314 6.18046L13.169 6.1507L13.1321 9.21177C12.7269 9.21707 12.3299 9.21766 11.9443 9.2144L9.37206 9.18077L9.34825 11.1757C9.34825 11.1757 10.731 11.1666 10.6999 11.1928C11.2218 11.133 11.6955 11.5025 11.7645 12.0232L11.7327 15.5032C11.7984 15.5039 11.8639 15.5088 11.929 15.5178L11.7325 15.5169L11.6617 20.4046C11.6311 20.7696 11.3117 21.0415 10.9464 21.0134C10.9754 21.0212 9.59162 20.9955 9.59162 20.9955L9.19287 23.2177L11.6213 23.2473L12.9568 23.2601L12.9209 26.356L14.7851 26.3793L14.812 23.3294C15.3074 23.3482 15.8053 23.3574 16.3008 23.3625L16.2625 26.4163L18.1266 26.4396L18.1689 23.3455C21.3124 23.2044 23.5116 22.4411 23.8197 19.501C24.0649 17.1306 22.9711 16.0612 21.2007 15.611C22.2899 15.0747 22.982 14.1146 22.8394 12.496L22.8522 12.4995Z" fill="#00501E"/>
</svg>
