<svg width="13" height="16" viewBox="0 0 13 16" fill="none" xmlns="http://www.w3.org/2000/svg">
<path d="M1.2687 16C0.926052 16 0.628939 15.8678 0.377363 15.6035C0.125788 15.3391 0 15.0269 0 14.6669V2.9511H1.2687V14.6669H10.0245V16H1.2687ZM3.64636 13.4969C3.30493 13.4969 3.00886 13.3652 2.75815 13.1018C2.50744 12.8383 2.38209 12.5272 2.38209 12.1685V1.33313C2.38209 0.973078 2.50744 0.660877 2.75815 0.396526C3.00886 0.132175 3.30493 0 3.64636 0H11.7313C12.0739 0 12.3711 0.132175 12.6226 0.396526C12.8742 0.660877 13 0.973078 13 1.33313V12.1685C13 12.5272 12.8742 12.8383 12.6226 13.1018C12.3711 13.3652 12.0739 13.4969 11.7313 13.4969H3.64636ZM3.64636 12.1685H11.7313V1.33313H3.64636V12.1685Z" fill="#00501E"/>
</svg>
